HIERARCHY
ROOT Hips
{
  OFFSET -125.086 92.215 135.881
  CHANNELS 6 Xposition Yposition Zposition Zrotation Xrotation Yrotation
  JOINT LeftUpLeg
  {
    OFFSET 8.64259 1.95398 -2.38835
    CHANNELS 3 Zrotation Xrotation Yrotation
    JOINT LeftLeg
    {
      OFFSET 43.7702 0 0
      CHANNELS 3 Zrotation Xrotation Yrotation
      JOINT LeftFoot
      {
        OFFSET 40.6238 0 0
        CHANNELS 3 Zrotation Xrotation Yrotation
        JOINT LeftToeBase
        {
          OFFSET 12.7242 0 0
          CHANNELS 3 Zrotation Xrotation Yrotation
          End Site
          {
            OFFSET 0 0 0
          }
        }
      }
    }
  }
  JOINT RightUpLeg
  {
    OFFSET -8.2249 1.95398 -2.59336
    CHANNELS 3 Zrotation Xrotation Yrotation
    JOINT RightLeg
    {
      OFFSET 43.5653 0 0
      CHANNELS 3 Zrotation Xrotation Yrotation
      JOINT RightFoot
      {
        OFFSET 40.6238 0 0
        CHANNELS 3 Zrotation Xrotation Yrotation
        JOINT RightToeBase
        {
          OFFSET 12.7242 0 0
          CHANNELS 3 Zrotation Xrotation Yrotation
          End Site
          {
            OFFSET 0 0 0
          }
        }
      }
    }
  }
  JOINT Spine
  {
    OFFSET 0.165834 0.87714 6.61349
    CHANNELS 3 Zrotation Xrotation Yrotation
    JOINT Spine1
    {
      OFFSET 7.38963 1.71661e-005 0
      CHANNELS 3 Zrotation Xrotation Yrotation
      JOINT Spine2
      {
        OFFSET 11.9445 1.14441e-005 0
        CHANNELS 3 Zrotation Xrotation Yrotation
        JOINT Spine3
        {
          OFFSET 14.7254 4.19617e-005 0
          CHANNELS 3 Zrotation Xrotation Yrotation
          JOINT Spine4
          {
            OFFSET 10.9679 0 0
            CHANNELS 3 Zrotation Xrotation Yrotation
            JOINT RightShoulder
            {
              OFFSET 2.46616 -1.6653 3.69651
              CHANNELS 3 Zrotation Xrotation Yrotation
              JOINT RightArm
              {
                OFFSET 13.0012 0 0
                CHANNELS 3 Zrotation Xrotation Yrotation
                JOINT RightForeArm
                {
                  OFFSET 28.7848 1.52588e-005 0
                  CHANNELS 3 Zrotation Xrotation Yrotation
                  JOINT RightHand
                  {
                    OFFSET 26.5688 1.52588e-005 0
                    CHANNELS 3 Zrotation Xrotation Yrotation
                    End Site
                    {
                      OFFSET 0 0 0
                    }
                  }
                }
              }
            }
            JOINT LeftShoulder
            {
              OFFSET 2.38034 -1.29275 -3.7523
              CHANNELS 3 Zrotation Xrotation Yrotation
              JOINT LeftArm
              {
                OFFSET 16.3182 6.10352e-005 0
                CHANNELS 3 Zrotation Xrotation Yrotation
                JOINT LeftForeArm
                {
                  OFFSET 27.0901 0 0
                  CHANNELS 3 Zrotation Xrotation Yrotation
                  JOINT LeftHand
                  {
                    OFFSET 24.5451 1.52588e-005 0
                    CHANNELS 3 Zrotation Xrotation Yrotation
                    End Site
                    {
                      OFFSET 0 0 0
                    }
                  }
                }
              }
            }
            JOINT Neck
            {
              OFFSET 5.0226 -0.0266342 0
              CHANNELS 3 Zrotation Xrotation Yrotation
              JOINT Head
              {
                OFFSET 6.69363 2.86102e-005 0
                CHANNELS 3 Zrotation Xrotation Yrotation
                End Site
                {
                  OFFSET 0 0 0
                }
              }
            }
          }
        }
      }
    }
  }
}
MOTION
Frames:	18
Frame Time:	0.0416667
264.793 79.7735 -272.162 -93.5193 -43.1054 -92.2417 -126.127 15.1025 104.703 39.8095 17.4915 -70.3945 36.9231 15.7442 -14.1925 -8.78663 -5.0368 17.9592 -175.415 70.7409 89.4909 -84.5329 -57.1585 -4.75832 7.74954 20.0164 18.0666 -45.1503 -28.1582 46.6587 1.69778 5.78444 -90.2248 15.3255 3.24416 -0.948914 3.6581 3.19926 -1.09092 -18.9096 3.3792 0.0710522 1.10304 3.37919 0.0710499 130.674 -47.5611 -37.685 86.4232 3.60507 -73.3124 -60.5511 11.4948 -0.0241632 -82.025 31.9494 -41.9294 -97.4803 -47.0424 66.3648 -5.66848 -18.2378 70.7453 28.4797 31.3647 -89.0726 -29.3903 -4.00897 11.8387 -61.728 10.4386 -18.1448 35.0392 20.4826 48.3618 
265.023 79.7166 -272.38 -93.5943 -43.1609 -92.4006 -125.745 15.04 104.461 40.188 17.5734 -70.5545 36.6223 15.7475 -14.3212 -8.31378 -4.99624 17.958 -175.295 70.8518 89.3558 -85.1201 -56.8848 -4.92671 7.24299 19.9322 18.6813 -45.2581 -27.1968 45.5516 1.68494 5.79901 -90.2069 15.2956 3.22799 -0.909187 3.62829 3.18484 -1.0505 -18.9391 3.35183 0.104063 1.07353 3.35184 0.104068 130.787 -47.8112 -37.6471 86.117 3.51131 -73.474 -60.4351 13.5687 -0.0243584 -81.4276 33.2307 -43.753 -97.4236 -46.9465 66.4168 -5.67639 -18.2489 70.656 28.281 31.3722 -89.2511 -29.3857 -4.11583 12.2778 -61.6628 10.4669 -18.1554 35.2238 20.5921 48.3444 
265.69 79.5536 -273.014 -93.8162 -43.3228 -92.8641 -124.671 14.8507 103.759 41.2785 17.8098 -71.0084 35.7483 15.739 -14.666 -6.91758 -4.87295 17.9525 -174.93 71.1395 88.9543 -86.8997 -56.7984 -5.50917 5.79974 20.3986 20.4119 -45.3063 -24.355 42.4235 1.64736 5.84159 -90.1551 15.2085 3.18016 -0.793863 3.54107 3.14214 -0.933184 -19.0254 3.27159 0.199641 0.98726 3.27158 0.199641 131.12 -48.5322 -37.5315 85.2293 3.24377 -73.9394 -60.156 20.0683 -0.0252092 -78.6597 36.942 -49.9306 -97.2571 -46.6652 66.57 -5.70513 -18.2823 70.3927 27.7044 31.3942 -89.7691 -29.3686 -4.42597 13.5536 -61.4704 10.5499 -18.1862 35.7576 20.9083 48.2886 
266.76 79.2957 -274.03 -94.1856 -43.5852 -93.615 -123.059 14.5259 102.641 43.0028 18.1833 -71.7088 34.348 15.6734 -15.1373 -4.61194 -4.66269 17.9255 -174.304 71.4934 88.2818 -89.5883 -56.3203 -6.39287 3.44379 20.8058 23.2971 -44.5911 -19.7256 37.6055 1.58579 5.91092 -90.0722 15.0667 3.10093 -0.609121 3.39921 3.07109 -0.745118 -19.1656 3.14048 0.351935 0.847081 3.14047 0.351941 131.663 -49.6697 -37.328 83.8168 2.82875 -74.6719 -59.887 32.0468 -0.0279355 -70.1981 42.0954 -63.1036 -96.9848 -46.2043 66.8229 -5.76504 -18.3399 69.9626 26.7793 31.4331 -90.6038 -29.3304 -4.9251 15.6094 -61.1526 10.687 -18.2356 36.6049 21.4113 48.1832 
268.194 78.9529 -275.391 -94.7097 -43.9427 -94.6404 -121.11 14.06 101.16 45.2693 18.678 -72.5989 32.4843 15.4937 -15.6326 -1.39976 -4.36707 17.8606 -173.399 71.7635 87.3351 -92.8002 -54.679 -7.37989 0.360429 20.3898 27.2199 -42.1597 -13.5432 31.3058 1.50097 6.00607 -89.9611 14.8723 2.98941 -0.361151 3.20469 2.97065 -0.492492 -19.3576 2.95962 0.554806 0.655084 2.95964 0.554801 132.411 -51.158 -37.0174 81.9499 2.29573 -75.6249 -59.7481 50.6208 -0.0373214 -51.4649 44.1104 -86.004 -96.6085 -45.5651 67.1765 -5.86922 -18.4248 69.3717 25.5325 31.4956 -91.7353 -29.2555 -5.60015 18.3981 -60.7084 10.88 -18.3024 37.7268 22.0803 48.0124 
269.954 78.534 -277.059 -95.4012 -44.3887 -95.9318 -119.047 13.4601 99.3803 47.9777 19.2852 -73.6188 30.2441 15.1444 -16.0611 2.70092 -3.99864 17.762 -172.226 71.7883 86.1425 -96.4381 -52.3666 -8.46708 -3.11229 19.7615 31.7415 -36.8554 -6.29859 23.444 1.39298 6.12636 -89.8245 14.6269 2.84433 -0.0560215 2.95903 2.83912 -0.181262 -19.5997 2.72958 0.802064 0.412924 2.72957 0.802058 133.36 -52.923 -36.5787 79.7113 1.67275 -76.7441 -59.5185 74.7525 -0.0900365 -28.5621 35.9955 -110.239 -96.1281 -44.7446 67.6348 -6.03197 -18.5393 68.6252 23.9881 31.5914 -93.143 -29.1201 -6.43564 21.8779 -60.1353 11.1324 -18.3861 39.0833 22.894 47.759 
271.995 78.0484 -278.989 -96.2767 -44.9141 -97.484 -117.092 12.7558 97.3689 51.0262 20.0099 -74.7106 27.735 14.5707 -16.3541 7.62939 -3.57992 17.653 -170.848 71.4087 84.7849 -100.306 -49.0538 -9.51467 -6.55815 18.9966 36.2856 -27.0577 0.950944 13.6052 1.26188 6.27118 -89.665 14.3319 2.66419 0.300131 2.66368 2.67481 0.182504 -19.8905 2.45076 1.08743 0.122168 2.45075 1.08742 134.503 -54.8801 -35.9934 77.1999 0.98187 -77.9663 120.884 80.0096 -179.864 -12.8054 20.2157 -123.351 -95.5423 -43.7369 68.2047 -6.2686 -18.6853 67.7281 22.1689 31.7341 -94.8007 -28.8939 -7.41067 26.0059 -59.4306 11.4481 -18.4864 40.6335 23.8305 47.4059 
274.266 77.5088 -281.134 -97.3557 -45.5068 -99.2938 -115.432 11.9991 95.1879 54.3303 20.8781 -75.8289 25.0788 13.7067 -16.475 13.2516 -3.13769 17.5713 -169.357 70.4629 83.3702 -104.158 -44.1013 -10.3369 -9.66619 18.3861 40.1548 -10.1043 5.66246 1.79566 1.10808 6.43986 -89.4855 13.989 2.44762 0.700853 2.32026 2.47609 0.592385 -20.2281 2.12379 1.40432 -0.215478 2.12379 1.40431 135.82 -56.9344 -35.2552 74.5305 0.233012 -79.2188 122.195 58.3109 -179.955 -3.22393 4.67027 -127.126 -94.8477 -42.5334 68.8971 -6.59531 -18.863 66.6854 20.0989 31.9435 -96.6708 -28.5432 -8.49744 30.7307 -58.593 11.8312 -18.6034 42.3349 24.8656 46.9374 
276.719 76.9324 -283.446 -98.6591 -46.1507 -101.36 -114.17 11.2432 92.8822 57.8555 21.9408 -76.957 22.3987 12.4601 -16.4347 19.3419 -2.69321 17.5504 -167.753 68.7535 81.8906 -107.517 -35.9511 -10.698 -12.5556 18.2232 42.6748 15.9641 3.49872 -6.69533 0.932017 6.63163 -89.2888 13.6002 2.19369 1.13953 1.93071 2.2417 1.04184 -20.6107 1.74984 1.7462 -0.598078 1.74981 1.7462 137.268 -58.9892 -34.3848 71.82 -0.576955 -80.428 123.85 41.489 -179.968 3.49487 -7.35463 -126.507 -94.0395 -41.1226 69.7275 -7.02854 -19.0706 65.5013 17.8039 32.2438 -98.7022 -28.035 -9.65934 35.9888 -57.623 12.2848 -18.7377 44.1455 25.9749 46.3418 
279.309 76.3416 -285.881 -100.208 -46.8256 -103.683 -113.313 10.5084 90.4757 61.6208 23.2686 -78.1163 19.8192 10.7044 -16.299 25.5941 -2.25685 17.5851 -165.715 65.9809 79.9856 -109.526 -20.5151 -10.5335 -15.9897 18.2284 42.9486 45.8488 -2.00127 4.81673 0.734292 6.84551 -89.0775 13.1678 1.90173 1.60963 1.49734 1.97072 1.52436 -21.036 1.33018 2.10666 -1.0234 1.33018 2.10665 138.774 -60.958 -33.4401 69.17 -1.45888 -81.5312 125.754 28.7375 -179.973 8.80293 -15.9914 -124.213 -93.1117 -39.492 70.7168 -7.58443 -19.3039 64.1776 15.3125 32.6614 -100.833 -27.3392 -10.8465 41.7052 -56.5236 12.8094 -18.888 46.0262 27.1343 45.6123 
282.005 75.7632 -288.404 -102.022 -47.5079 -106.265 -112.777 9.76841 87.962 65.6773 24.9525 -79.3607 17.4808 8.27898 -16.188 31.6357 -1.83477 17.5845 -162.68 61.6873 77.1914 -108.917 11.3123 -11.2716 -20.2091 16.5891 38.5261 53.604 -0.251896 48.4345 0.515512 7.08032 -88.8542 12.6944 1.57127 2.10461 1.02282 1.66235 2.03344 -21.5016 0.866328 2.47934 -1.48894 0.866324 2.47933 140.226 -62.7713 -32.5273 66.659 -2.42803 -82.4805 127.834 18.9072 -179.975 13.227 -22.1682 -121.449 -92.0566 -37.6276 71.8932 -8.27917 -19.556 62.7124 12.6556 33.2255 -102.99 -26.4362 -11.9992 47.7897 -55.3008 13.4034 -19.0519 47.939 28.3199 44.7474 
284.795 75.3404 -290.998 -104.117 -48.171 -109.103 -112.431 8.94324 85.2611 70.089 27.3193 -80.7105 15.726 4.94991 -16.2499 37.0555 -1.44829 17.3196 -160.61 55.7366 75.7575 -101.18 54.1618 -20.31 -22.133 10.5389 30.9262 32.9393 -4.45603 94.9202 0.276216 7.33478 -88.6214 12.1832 1.20163 2.61793 0.510229 1.31565 2.56254 -22.0045 0.359632 2.85784 -1.99183 0.359629 2.85783 141.467 -64.383 -31.8064 64.3348 -3.49542 -83.2449 130.064 11.0642 -179.976 17.0255 -26.7095 -118.686 -90.8637 -35.5137 73.2974 -9.12894 -19.8172 61.0987 9.86547 33.9679 -105.085 -25.3249 -13.0595 54.1342 -53.9644 14.0622 -19.2236 49.8459 29.5083 43.7517 
287.54 73.1736 -293.764 -106.507 -48.7868 -112.195 -111.685 8.4051 83.0417 75.2805 27.0983 -83.3227 11.9342 0.311045 -16.4809 41.4728 -1.15113 16.4249 -160.007 49.6924 75.8896 -58.5032 78.6663 -68.5386 -22.4678 0.145017 30.9094 26.2368 -15.6094 109.454 0.0168999 7.60724 -88.3814 11.6376 0.792228 3.14356 -0.0368182 0.929755 3.10569 -22.5414 -0.188633 3.23626 -2.52879 -0.188623 3.23627 142.317 -65.7757 -31.4714 62.2103 -4.65925 -83.8172 132.451 4.57732 -179.977 20.3553 -30.173 -116.091 -89.5208 -33.1322 74.9831 -10.1483 -20.0741 59.3221 6.97214 34.9233 -107.028 -24.0218 -13.9757 60.6213 -52.5271 14.7778 -19.3964 51.7107 30.6773 42.6376 
290.738 69.7442 -297.141 -109.196 -49.3262 -115.532 -110.391 8.04131 79.733 81.7199 26.9636 -86.369 7.43543 -6.9346 -17.513 44.5896 -1.01301 14.4986 -159.815 42.8973 75.6452 4.62242 77.8194 -139.021 -22.1952 -11.3205 37.5977 31.6884 -10.8282 115.116 -0.261869 7.89601 -88.1362 11.0616 0.343069 3.67606 -0.614458 0.504408 3.65743 -23.109 -0.77684 3.60947 -3.09638 -0.776869 3.60946 142.599 -66.9553 -31.7172 60.2701 -5.90903 -84.2135 135.011 -0.955627 -179.978 23.3165 -32.9086 -113.715 -88.0197 -30.4632 77.0114 -11.3475 -20.3093 57.3589 3.99962 36.132 -108.73 -22.5549 -14.6934 67.1335 -51.0052 15.5394 -19.5651 53.5012 31.8069 41.424 
294.679 67.4439 -301.147 -112.183 -49.7598 -119.101 -109.616 7.43388 74.3485 90.5653 31.7372 -90.3599 6.17323 -17.883 -18.7443 46.175 -1.06892 11.2152 -161.091 34.5415 75.3313 17.93 75.4988 -157.395 -19.4699 -19.8469 46.3599 39.5085 -1.98013 115.992 -0.559058 8.19922 -87.8875 10.4591 -0.144816 4.2103 -1.21867 0.0404486 4.21259 -23.7037 -1.40251 3.97288 -3.69105 -1.40251 3.97287 142.163 -67.9391 -32.7124 58.4812 -7.22106 -84.4652 137.762 -5.79974 -179.979 25.984 -35.1418 -111.562 -86.3581 -27.4882 79.4522 -12.7302 -20.5001 55.171 0.963035 37.6403 -110.102 -20.9638 -15.1683 73.5557 -49.4167 16.3322 -19.7267 55.1888 32.8792 40.1371 
299.2 66.4774 -305.641 -115.457 -50.0578 -122.88 -109.857 7.61869 67.2091 100.385 41.3901 -97.8912 9.75949 -30.7177 -17.6235 45.9842 -1.24485 6.36934 -164.193 25.8738 75.265 21.6901 75.3846 -163.64 -14.9261 -24.2266 54.8448 46.4675 5.91799 114.91 -0.873104 8.51518 -87.6372 9.83372 -0.669299 4.74134 -1.84578 -0.460229 4.76613 -24.3223 -2.06205 4.32242 -4.30963 -2.06205 4.32242 140.91 -68.7469 -34.5754 56.8019 -8.56107 -84.6154 140.707 -10.1341 -179.98 28.4181 -37.0217 -109.611 -84.5396 -24.2069 82.3972 -14.2875 -20.6184 52.6989 -2.13195 39.4951 -111.052 -19.2951 -15.3841 79.78 -47.781 17.1385 -19.8809 56.7504 33.8795 38.8091 
303.867 66.2306 -310.246 -118.994 -50.1893 -126.837 -104.162 7.24481 56.1228 109.405 57.3325 -117.168 20.779 -36.0981 -11.964 43.5793 -1.26432 -0.225575 -168.814 17.0873 75.2379 22.7853 75.6732 -165.493 -10.0974 -25.4841 62.6308 52.2206 12.0741 113.296 -1.20199 8.8425 -87.3866 9.18831 -1.22731 5.26458 -2.49291 -0.994749 5.31328 -24.9624 -2.75117 4.65462 -4.94974 -2.75119 4.65461 138.797 -69.3895 -37.362 55.195 -9.89572 -84.7106 143.831 -14.0739 -179.981 30.6631 -38.648 -107.846 -82.5819 -20.6672 85.9598 -15.9914 -20.63 49.8597 -5.2818 41.7233 -111.498 -17.5911 -15.3239 85.6981 -46.1162 17.9399 -20.0264 58.1703 34.7989 37.4726 
307.818 65.8577 -314.05 -122.757 -50.1225 -130.928 -103.191 1.86028 43.2974 161.996 73.1666 -169.025 35.2468 -43.4537 -10.1389 38.4876 -0.556779 -8.55445 -175.083 6.06181 74.8817 22.2492 76.7443 -164.228 -5.23947 -23.8621 71.7227 57.0778 16.8672 111.483 -1.54388 9.18054 -87.1369 8.52425 -1.81541 5.77623 -3.15858 -1.55986 5.85018 -25.6231 -3.46548 4.96689 -5.61044 -3.4655 4.96688 135.839 -69.8633 -41.0672 53.635 -11.1973 -84.7896 147.105 -17.694 -179.983 32.7496 -40.0887 -106.252 -80.5256 -16.9618 90.23 -17.7908 -20.4952 46.5582 -8.46146 44.2987 -111.382 -15.883 -14.9728 91.2255 -44.4355 18.7216 -20.1596 59.4397 35.6339 36.1555 
